<?xml version="1.0" standalone="no"?>
<!DOCTYPE svg PUBLIC "-//W3C//DTD SVG 20010904//EN"
 "http://www.w3.org/TR/2001/REC-SVG-20010904/DTD/svg10.dtd">
<svg version="1.0" xmlns="http://www.w3.org/2000/svg"
 width="1250.000000pt" height="1250.000000pt" viewBox="0 0 1250.000000 1250.000000"
 preserveAspectRatio="xMidYMid meet">
<metadata>
Created by potrace 1.14, written by Peter Selinger 2001-2017
</metadata>
<g transform="translate(0.000000,1250.000000) scale(0.100000,-0.100000)"
fill="#000000" stroke="none">
<path d="M7516 12071 l-359 -360 1849 -1848 c1018 -1016 1895 -1895 1950
-1953 140 -149 249 -314 314 -480 12 -30 26 -64 31 -75 11 -25 37 -121 43
-159 3 -16 11 -55 18 -85 13 -60 17 -363 6 -446 -33 -247 -133 -497 -280 -699
-62 -85 -86 -113 -168 -192 -93 -90 -114 -108 -214 -175 -155 -104 -312 -176
-492 -223 -133 -34 -191 -41 -364 -41 -170 0 -229 6 -360 40 -226 57 -424 158
-630 323 -55 44 -671 651 -1460 1438 -751 749 -1387 1381 -1414 1405 -181 163
-451 299 -679 344 -39 8 -83 17 -97 20 -57 13 -328 14 -415 1 -346 -52 -624
-192 -861 -433 -228 -232 -369 -511 -420 -833 -21 -135 -12 -399 19 -530 26
-110 85 -277 119 -339 11 -20 34 -61 51 -91 30 -55 110 -169 157 -225 27 -32
466 -474 1602 -1616 1204 -1210 1221 -1228 1339 -1394 183 -256 288 -589 283
-895 -1 -80 -11 -201 -20 -245 -3 -11 -9 -42 -14 -69 -38 -190 -160 -442 -297
-614 -44 -55 -181 -194 -236 -239 -145 -120 -407 -260 -537 -288 -3 -1 -23 -6
-45 -13 -132 -37 -407 -57 -530 -38 -22 4 -58 9 -80 11 -60 8 -217 51 -293 81
-141 55 -268 126 -397 223 -83 63 -97 77 -2053 2034 -961 961 -1750 1747
-1754 1747 -5 0 -171 -163 -370 -362 l-361 -361 1434 -1431 c1845 -1841 2283
-2271 2454 -2408 393 -314 893 -511 1385 -545 162 -11 423 -6 520 12 94 16
200 35 225 40 154 29 413 123 600 217 399 200 788 564 1015 948 115 194 247
514 284 690 3 14 14 66 25 115 11 50 22 115 26 145 4 30 9 66 12 80 9 51 12
487 3 550 -5 36 -12 88 -15 115 -3 28 -8 57 -10 65 -2 8 -7 29 -10 45 -2 17
-7 41 -10 55 -3 14 -8 36 -11 50 -30 156 -143 452 -240 625 -187 335 -230 384
-1309 1465 -255 256 -768 769 -1140 1140 -372 371 -692 699 -712 728 -105 158
-135 317 -90 462 29 89 49 122 115 188 103 102 202 143 340 138 42 -2 91 -6
107 -10 53 -12 188 -84 241 -127 27 -22 528 -519 1111 -1103 1785 -1785 1762
-1764 2003 -1922 232 -152 526 -282 765 -338 154 -37 191 -44 247 -52 24 -3
54 -7 68 -9 161 -22 504 -23 628 -1 9 2 38 6 63 10 80 12 101 16 224 46 538
129 1001 421 1375 866 182 217 361 544 453 829 82 255 110 438 111 725 1 292
-12 413 -73 651 -109 425 -345 849 -655 1179 -102 108 -3769 3780 -3775 3780
-4 0 -168 -162 -365 -359z"/>
<path d="M4897 10954 c-1 -1 -56 -5 -123 -8 -66 -4 -131 -8 -145 -11 -13 -2
-43 -6 -65 -9 -35 -4 -118 -18 -269 -43 -160 -26 -539 -145 -703 -219 -29 -13
-55 -24 -57 -24 -3 0 -53 -23 -112 -52 -413 -199 -783 -476 -1072 -803 -440
-497 -738 -1143 -846 -1834 -34 -214 -40 -300 -40 -561 0 -269 12 -409 51
-625 84 -464 289 -950 548 -1302 50 -68 155 -203 166 -213 3 -3 34 -39 70 -80
36 -41 70 -80 75 -86 41 -45 158 -176 186 -209 19 -22 57 -65 85 -95 28 -30
84 -91 125 -135 40 -44 281 -287 534 -540 461 -461 740 -733 1230 -1198 88
-84 297 -288 464 -455 168 -167 321 -312 341 -322 58 -29 146 -51 218 -54 136
-6 251 42 341 139 172 189 197 431 66 629 -21 33 -590 609 -1388 1409 -744
744 -1386 1389 -1428 1433 -265 278 -460 614 -574 988 -19 66 -38 135 -41 155
-3 20 -7 38 -9 41 -2 3 -11 46 -19 95 -14 82 -18 118 -31 240 -5 48 -6 335 -1
385 14 147 24 210 62 400 12 57 56 205 88 292 133 363 318 659 571 914 211
213 405 353 674 488 192 96 500 199 666 223 17 2 53 8 80 13 212 40 614 33
860 -15 289 -57 649 -196 843 -326 24 -16 45 -29 47 -29 4 0 92 -58 115 -77 8
-6 51 -40 95 -74 44 -34 470 -452 946 -928 782 -782 1540 -1532 1834 -1815
169 -163 328 -241 516 -253 103 -7 141 4 224 62 70 49 119 103 180 195 101
154 104 283 11 445 -35 61 -234 264 -1496 1526 -1532 1533 -1562 1562 -1820
1731 -161 105 -242 151 -415 234 -288 138 -682 265 -952 308 -168 26 -210 32
-333 42 -71 5 -368 12 -373 8z"/>
</g>
</svg>
