<svg id="Layer_1" data-name="Layer 1" xmlns="http://www.w3.org/2000/svg" viewBox="0 0 2087.61 2607.21"><defs><style>.cls-1{fill:none;}.cls-2{fill:#fff;}.cls-3{fill:#f3f4f6;}</style></defs><path class="cls-1" transform="translate(0 0)"/><rect class="cls-2" width="2087.6" height="2607.21"/><path class="cls-3" d="M0,2607.21H2087.6v-1097a206.18,206.18,0,0,0-2-30c-4-22.6-14.2-41.7-34-61.3q-61.26-60.92-126.5-120.8c-140.9-129.3-304.9-250.2-478.9-366.4,4.7,3.2,9.5,6.3,14.2,9.5-6.8-4.6-13.6-9.1-20.4-13.7-86.1-57.9-175.2-114.4-269.5-168.4q-99.3-56.8-204.3-110.2c89.8,25.9,179,52.7,266.4,80.8C1447.1,798.61,1649.6,878,1844,963c35.3,15.4,55-30.4,58.5-41.2,9.2-28.1,11.3-64.9-15.6-90.7a3185.92,3185.92,0,0,0-284.3-243.4,3074.65,3074.65,0,0,0-255.8-173.6c-84.3-51.3-172.4-100.2-259.8-149.8l-3.9-2.1C1251.9,298,1418,338,1577.5,384.91c42,12.3,59-29.1,63.5-43.7,4.7-15.4,3.6-34-2.9-49.2-3.3-7.7-12.6-25.7-28.6-29.7-89.9-22.6-178.9-45.9-268.3-69.1-153-39.4-308.5-75.8-467.1-107.9q-115.86-23.7-233.9-43.8c-78-13.3-155.1-28.3-233.4-41.2-17.7-2.9-31.2,15.5-36.3,21.9-10.6,13.3-13.8,29.3-15.7,43.7a111.93,111.93,0,0,0,3.7,48.8c2.8,9.2,11.3,29.4,28.2,35.5,51.4,18.6,103,37.3,152.6,57.3,50.7,20.5,104.3,38.9,155.5,59.1q74,29.1,145.2,60c48.29,20.9,97.9,41,146.1,62,49.5,21.6,100.6,41.4,147.6,64.8,50.8,25.2,101,51.1,148.3,78.3q97.95,56.5,186.9,117.7Q1351,604,1228.6,562.31c-98.1-33.4-199.8-62.5-304.3-89.3-105.9-27.2-213.5-52.7-321.8-76.9-115.3-25.7-233.8-45.5-352-66.6q-92.91-17.7-186.5-34.2c-19.9-3.5-37.2,15.2-44,22.6-12.4,13.5-16.5,30.3-18.7,45.2A125.7,125.7,0,0,0,0,379.21Z" transform="translate(0 0)"/><path class="cls-1" transform="translate(0 0)"/></svg>